<?xml version="1.0" encoding="utf-8"?>
<!-- Generator: Adobe Illustrator 16.0.0, SVG Export Plug-In . SVG Version: 6.00 Build 0)  -->
<!DOCTYPE svg PUBLIC "-//W3C//DTD SVG 1.1//EN" "http://www.w3.org/Graphics/SVG/1.1/DTD/svg11.dtd">
<svg version="1.1" id="Layer_1" xmlns="http://www.w3.org/2000/svg" xmlns:xlink="http://www.w3.org/1999/xlink" x="0px" y="0px"
	 width="566.929px" height="708.662px" viewBox="0 0 566.929 708.662" enable-background="new 0 0 566.929 708.662"
	 xml:space="preserve">
<path fill="#1F4997" d="M380.636,533.416h21.321h1.06h21.321c0,0,3.378-0.265,3.576-2.847l-0.066-31.122
	c0,0,0.331-1.589-2.979-1.655c-2.988-0.06-19.242-0.065-22.381-0.065c-3.14,0-19.394,0.006-22.381,0.065
	c-3.312,0.066-2.979,1.655-2.979,1.655l-0.066,31.122C377.259,533.151,380.636,533.416,380.636,533.416z"/>
<path fill="#1F4997" d="M469.832,375.688V172.275L283.268,87.326L96.704,172.275v203.413c0,0-0.153,8.831,18.564,20.485
	c13.861,8.63,99.303,46.106,142.72,64.979H138.943c-23.328,0-42.24,11.164-42.24,24.938v58.188c0,13.773,18.912,24.938,42.24,24.938
	h288.646c23.33,0,42.242-11.164,42.242-24.938V486.09c0-13.773-18.912-24.938-42.242-24.938H308.548
	c43.417-18.873,128.857-56.35,142.719-64.979C469.984,384.519,469.832,375.688,469.832,375.688z M286.08,117.537l150.884,73.014
	l-37.952,17.948L286.08,155.324V117.537z M314.951,246.083l-35.492,18.541l-107.537-54.917l35.368-15.89L314.951,246.083z
	 M283.268,117.537v37.787l-113.815,51.913l-38.14-18.011L283.268,117.537z M163.964,391.331c-36.167-19.167-33.706-44-33.706-44
	V191.749l34.253,16.463L163.964,391.331z M189.936,499.381h-50.06c0,0-4.502-0.266-5.827,4.502s0,25.295,0,25.295
	s0.265,3.841,4.768,4.237c4.502,0.397,51.119,0,51.119,0v16.024H133.46c0,0-15.303,0.265-16.892-14.832
	c-1.589-15.098,0-38.803,0-38.803s1.986-14.7,16.951-15.362h56.416V499.381z M259.756,551.312c-17.763,1.501-45.654,0-45.654,0
	s-17.295-1.876-18.074-16.012v-53.29h15.892l0.132,47.697c0,0-1.209,5.245,4.538,5.175c10.859-0.133,36.779-0.083,36.779-0.083
	s8.345,1.928,7.815-4.694c-0.341-4.266,0-48.095,0-48.095h16.024v53.345C277.208,535.355,277.519,549.81,259.756,551.312z
	 M167.551,393.475l-0.087-37.078l92.55,41.961c0,0,21.211,12.855,21.388,47.994L167.551,393.475z M361.566,496.203
	c0.928-13.376,16.951-14.192,16.951-14.192h23.44h1.06h23.44c0,0,16.024,0.816,16.951,14.192v40.259c0,0-0.132,13.905-14.037,13.905
	c-11.603,0-22.92,0-26.354,0c-0.682,0-1.06,0-1.06,0c-3.434,0-14.751,0-26.354,0c-13.905,0-14.038-13.905-14.038-13.905V496.203z
	 M344.085,482.01c10.462,3.952,12.051,13.795,12.051,13.795s0.53,23.97,0,37.876c-0.529,13.905-13.64,16.686-13.64,16.686h-59.229
	v-44.762l17.247,0.133l-0.265,27.943c0,0,34.035,0.529,37.479,0c3.442-0.53,3.178-3.312,3.178-3.312s0.133-23.44,0-27.546
	c-0.132-4.105-3.443-3.708-3.443-3.708h-54.195V482.01H344.085z M283.167,446.352V266.776l34.785-18.75v141.967l93.233-42.025
	v-63.921c0,0,3.177-12.184,9.004-18.187c3.915-4.033,17.835-13.773,17.835-13.773l0.883,121.661L283.167,446.352z M438.907,230.191
	l-117.6,58.094v-40.259l117.6-54.916V230.191z"/>
</svg>
