<?xml version="1.0" encoding="utf-8"?>
<!-- Generator: Adobe Illustrator 16.0.0, SVG Export Plug-In . SVG Version: 6.00 Build 0)  -->
<!DOCTYPE svg PUBLIC "-//W3C//DTD SVG 1.1//EN" "http://www.w3.org/Graphics/SVG/1.1/DTD/svg11.dtd">
<svg version="1.1" id="Layer_1" xmlns="http://www.w3.org/2000/svg" xmlns:xlink="http://www.w3.org/1999/xlink" x="0px" y="0px"
	 width="255.12px" height="155.91px" viewBox="0 0 255.12 155.91" enable-background="new 0 0 255.12 155.91" xml:space="preserve">
<g>
	<g>
		<polygon fill="#FFFFFF" points="81.274,101.645 56.733,76.124 83.899,98.895 		"/>
		<polygon fill="#FFFFFF" points="86.065,96.478 56.899,76.124 87.774,93.311 		"/>
		<polygon fill="#FFFFFF" points="89.99,90.56 56.899,76.124 91.027,87.113 		"/>
	</g>
	<g>
		<path fill="#FFFFFF" d="M37.899,85.619c0,0,6.76-3.633,9.067-4.787c2.401-1.202,9.766-4.641,9.766-4.641s-6.86,4.115-9.079,5.547
			c-2.223,1.434-8.683,5.911-8.683,5.911L37.899,85.619z"/>
		<path fill="#FFFFFF" d="M39.019,89.295c0,0,6.481-5.164,8.995-7.094c2.056-1.578,8.689-5.914,8.689-5.914s-6.08,5.089-7.955,6.826
			c-2.15,1.99-8.146,8.078-8.146,8.078L39.019,89.295z"/>
		<path fill="#FFFFFF" d="M40.144,93.17c0,0,6.095-6.908,8.279-9.135c1.955-1.994,8.279-7.748,8.279-7.748s-5.456,6.412-7.158,8.591
			c-1.896,2.427-7.234,9.833-7.234,9.833L40.144,93.17z"/>
	</g>
	<g>
		<path fill="#FFFFFF" d="M39.032,64.685c0,0,6.329,4.407,8.487,5.828c2.247,1.479,9.134,5.775,9.134,5.775s-6.43-4.891-8.51-6.569
			c-2.084-1.682-8.147-6.875-8.147-6.875L39.032,64.685z"/>
		<path fill="#FFFFFF" d="M40.015,61.246c0,0,6.093,5.864,8.455,8.067c1.932,1.802,8.154,6.877,8.154,6.877s-5.72-5.74-7.486-7.672
			c-2.026-2.215-7.681-8.917-7.681-8.917L40.015,61.246z"/>
		<path fill="#FFFFFF" d="M41.001,57.614c0,0,5.76,7.514,7.822,9.965c1.845,2.193,7.801,8.611,7.801,8.611s-5.16-6.948-6.773-9.29
			c-1.796-2.608-6.863-10.51-6.863-10.51L41.001,57.614z"/>
	</g>
	<g>
		<path fill="#FFFFFF" d="M55.506,97.152c0,0,0.208-7.671,0.353-10.248c0.151-2.68,0.829-10.78,0.829-10.78s0.16,7.999,0.299,10.634
			c0.139,2.643,0.813,10.474,0.813,10.474L55.506,97.152z"/>
		<path fill="#FFFFFF" d="M59.253,98.008c0,0-1.26-8.19-1.685-11.33c-0.348-2.569-0.812-10.479-0.812-10.479
			s1.394,7.806,1.968,10.295c0.657,2.854,2.96,11.083,2.96,11.083L59.253,98.008z"/>
		<path fill="#FFFFFF" d="M63.174,98.959c0,0-2.964-8.724-3.811-11.727c-0.757-2.687-2.606-11.034-2.606-11.034
			s2.852,7.921,3.896,10.481c1.164,2.852,4.937,11.165,4.937,11.165L63.174,98.959z"/>
	</g>
	<g>
		<path fill="#FFFFFF" d="M57.581,55.765c0,0-0.596,7.479-0.709,9.993c-0.117,2.616-0.218,10.529-0.218,10.529
			s1.055-7.786,1.501-10.348c0.448-2.569,2.076-10.173,2.076-10.173L57.581,55.765z"/>
		<path fill="#FFFFFF" d="M61.987,55.059c0,0-2.342,7.935-3.172,10.979c-0.68,2.49-2.076,10.179-2.076,10.179
			s2.455-7.555,3.387-9.96c1.067-2.758,4.614-10.694,4.614-10.694L61.987,55.059z"/>
		<path fill="#FFFFFF" d="M66.604,54.267c0,0-4.361,8.396-5.664,11.292c-1.164,2.591-4.202,10.659-4.202,10.659
			s4.146-7.618,5.626-10.077c1.651-2.737,6.898-10.706,6.898-10.706L66.604,54.267z"/>
	</g>
	<g>
		<polygon fill="#FFFFFF" points="92.14,70.134 56.733,76.191 91.57,66.078 		"/>
		<polygon fill="#FFFFFF" points="90.597,63.731 56.733,76.191 88.996,60.252 		"/>
		<polygon fill="#FFFFFF" points="85.979,57.789 56.733,76.191 83.877,54.901 		"/>
	</g>
</g>
<text transform="matrix(1.0336 0 0 1 92.1396 86.3008)" fill="#FFFFFF" font-family="'Arial-BoldMT'" font-size="23.0197">MITRATEL</text>
<text transform="matrix(1.0644 0 0 1 92.1392 97.2324)" fill="#FFFFFF" font-family="'Arial-BoldMT'" font-size="5.5979">TOWER &amp; INFRASTRUCTURE PROVIDER</text>
<rect x="92.14" y="89.212" fill="#FFFFFF" width="119.295" height="1.348"/>
</svg>
